<svg xmlns="http://www.w3.org/2000/svg" width="512" height="512" viewBox="0 0 512 512" version="1.1"><path d="M 257.568 7.750 C 254.269 50.185, 244.357 70.841, 216.798 92.708 C 207.260 100.276, 196.809 106.768, 168 123.020 C 140.763 138.385, 134.696 142.058, 120.500 151.770 C 69.302 186.796, 40.544 230.305, 31.114 287 C 29.141 298.863, 27 320.793, 27 329.145 L 27 333 76.410 333 L 125.820 333 126.455 324.250 C 128.682 293.557, 134.816 275.429, 149.026 257.548 C 159.225 244.713, 175.217 232.845, 205 216.009 C 250.454 190.314, 263.305 182.257, 279.716 169.170 C 328.860 129.978, 352.611 81.457, 356.528 12.250 L 357.221 0 307.696 0 L 258.171 0 257.568 7.750 M 385.545 187.750 C 383.318 218.443, 377.184 236.571, 362.974 254.452 C 352.775 267.287, 336.783 279.155, 307 295.991 C 250.556 327.899, 234.462 338.811, 213.967 359.066 C 177.130 395.473, 158.891 439.339, 155.472 499.750 L 154.779 512 204.304 512 L 253.829 512 254.428 504.250 C 256.509 477.277, 260.137 463.331, 269.058 448 C 280.211 428.833, 297.082 415.306, 339.500 391.524 C 374.364 371.976, 392.630 360.467, 407.128 348.913 C 448.496 315.945, 472.459 275.643, 480.917 224.810 C 482.864 213.108, 485 191.162, 485 182.855 L 485 179 435.590 179 L 386.180 179 385.545 187.750" stroke="none" fill="#ff3404" fill-rule="evenodd"/><path d="" stroke="none" fill="#fc3404" fill-rule="evenodd"/></svg>